PathFileType	4	(X/Y/Z)	Walking07.trc	
DataRate	CameraRate	NumFrames	NumMarkers	Units	OrigDataRate	OrigDataStartFrame	OrigNumFrames	
100.00	100.00	20	19	mm	100.00	363	98	
Frame#	Time	RPSI			LPSI			RASI			LASI			RTHI			RKNE			RHFB			RTUB			RSHN			RANK			RLCA			RSTL			RPCA			RCPG			RHEE			RP5M			RP1M			RD5M			RTOE			
		X1	Y1	Z1	X2	Y2	Z2	X3	Y3	Z3	X4	Y4	Z4	X5	Y5	Z5	X6	Y6	Z6	X7	Y7	Z7	X8	Y8	Z8	X9	Y9	Z9	X10	Y10	Z10	X11	Y11	Z11	X12	Y12	Z12	X13	Y13	Z13	X14	Y14	Z14	X15	Y15	Z15	X16	Y16	Z16	X17	Y17	Z17	X18	Y18	Z18	X19	Y19	Z19	

25	0.240	-428.95288	927.24585	170.88596	-434.60904	926.48401	76.73351	-239.32207	881.10321	237.93954	-242.02171	871.46295	6.14301	-315.34958	569.81653	259.14044	-312.39905	429.43893	223.74892	-319.98923	388.21112	220.92885	-262.72083	377.93579	162.23692	-282.94171	305.49945	152.59024	-388.72519	61.15891	173.43909	-400.99454	38.96837	166.47311	-388.15390	37.98452	103.07233	-424.96771	64.34669	131.08725	-450.69327	51.53715	130.87431	-433.05069	22.39273	126.40594	-309.31317	8.06185	197.29037	-287.89285	58.19168	116.49466	-272.78394	12.02549	202.88950	-236.38091	32.35452	159.37057 
26	0.250	-415.51196	928.90521	170.23470	-421.19635	927.63782	75.94513	-226.38011	881.65930	237.99741	-228.32729	872.67346	6.49671	-309.23361	570.08948	258.17776	-309.12869	429.71613	223.25977	-316.78986	388.70627	220.44717	-260.21155	377.66998	161.51941	-280.95117	305.44543	152.21768	-389.34369	61.43243	173.32787	-400.99258	39.44883	166.48633	-383.88205	36.42920	104.08846	-425.26703	65.09803	129.36206	-450.23816	52.56483	130.55304	-433.39575	23.75937	125.78181	-309.32593	8.28979	197.15454	-287.28717	58.46473	116.27857	-272.84158	11.96656	202.81998	-236.61168	31.97790	159.73274 
27	0.260	-402.05432	930.23407	169.40616	-407.64862	928.45642	75.09539	-213.41039	881.87170	238.06700	-214.56822	873.53729	6.27235	-303.19147	570.41333	257.24149	-305.79181	430.21069	222.75150	-313.74554	389.23227	219.79968	-257.53943	377.46066	161.00903	-278.56625	305.61786	151.79900	-387.73785	62.78737	172.77759	-400.58768	40.62506	165.60718	-388.97690	40.32265	101.95876	-423.41534	66.18487	130.58582	-449.79071	53.73863	129.85345	-433.18695	24.89183	125.11707	-309.69669	9.22213	197.92654	-287.24713	58.27296	116.37527	-273.07886	11.72550	202.77122	-236.41618	31.78653	159.81729 
28	0.270	-388.49884	931.14209	168.48479	-393.86215	928.96637	74.28354	-200.37415	881.77673	238.16728	-200.62056	874.01605	5.68667	-296.83762	570.84607	256.38480	-302.61600	430.75961	222.09764	-310.82364	389.82117	219.03423	-254.66103	377.23996	160.48067	-276.11096	305.80426	151.45114	-387.15518	63.85577	172.32007	-400.31503	41.69643	164.81642	-389.76682	41.89396	100.97271	-422.55115	67.27654	130.20990	-449.36044	54.95807	128.78836	-432.80997	25.96704	124.32903	-310.41803	10.99344	199.87419	-286.38184	58.30408	116.27978	-272.86621	11.53623	202.85663	-236.20135	31.67102	159.87924 
29	0.280	-375.10992	931.50958	167.68874	-379.89685	929.17590	73.51279	-187.21500	881.40332	238.08070	-186.45052	874.04224	4.88455	-290.01648	571.39813	255.65245	-299.12592	431.25027	221.34045	-308.10406	390.38144	218.25630	-251.51756	376.92517	160.12021	-273.58264	306.02231	151.06479	-386.67944	64.81487	171.52397	-400.00229	42.64262	163.86205	-389.31955	43.08148	100.11926	-422.43460	68.71432	128.55891	-448.88422	56.24030	127.56522	-432.29242	27.12612	123.13822	-310.51144	11.85391	200.01540	-285.09235	58.54531	116.17860	-272.58929	11.70313	202.87210	-236.02011	31.56223	159.98619 
30	0.290	-361.80878	931.30304	166.93510	-365.76392	928.98438	72.66354	-174.03958	880.62726	237.89000	-172.10257	873.69025	4.03276	-282.50464	571.83112	255.00464	-295.46814	431.76120	220.68425	-305.31097	390.94073	217.54796	-248.20119	376.48340	160.00574	-270.89200	306.13596	150.80455	-386.15286	65.79510	170.26370	-399.64932	43.55036	162.55051	-388.31741	44.42530	99.09908	-422.23819	70.18287	126.34763	-448.28735	57.57011	126.18185	-431.36765	28.19476	121.58696	-310.55411	12.54025	199.45642	-284.89993	58.81674	116.02285	-272.56509	11.87802	202.71085	-235.89896	31.47026	160.26019 
31	0.300	-348.05023	930.72223	165.80536	-351.44382	928.42438	71.69089	-161.01669	879.37860	237.78854	-157.67264	873.05603	3.27140	-274.36572	572.19836	254.49011	-291.64758	432.32675	220.11351	-302.26025	391.49106	216.79660	-245.27016	376.07401	159.49492	-267.98596	306.18607	150.57027	-385.57718	66.84211	168.72939	-399.27209	44.74333	160.96062	-386.80597	45.45512	98.14845	-420.39044	71.24320	125.59436	-447.43945	59.09635	123.90466	-430.36938	29.21622	119.68501	-310.40829	12.37729	197.70976	-284.27206	58.94313	115.50397	-272.56760	12.04417	202.57262	-235.58839	31.35137	160.41100 
32	0.310	-334.31982	929.58197	164.57843	-336.89944	927.40210	70.66628	-147.42941	878.14795	237.77711	-143.06400	872.10034	2.61828	-265.76422	572.37103	253.97020	-287.35434	432.79385	219.49582	-298.97812	391.98834	215.89145	-242.12718	375.80649	159.62532	-264.89032	306.20151	150.15128	-384.97394	68.11126	167.17014	-398.77655	46.17149	159.31161	-385.94748	46.78870	96.65080	-419.17410	72.83370	124.00970	-446.41937	61.02378	121.51429	-430.40146	31.26646	117.46582	-310.22913	11.27790	194.84781	-283.48987	59.03481	114.79679	-272.63080	12.21509	202.38138	-235.29031	31.26838	160.54974 
33	0.320	-320.52094	927.89441	163.23068	-322.20810	925.91809	69.55518	-133.71155	876.75031	237.82932	-128.07233	870.98279	2.21653	-256.79678	572.12048	253.41800	-282.68689	433.21829	218.66747	-295.21637	392.49081	214.94084	-237.71771	375.65530	159.74001	-261.40277	306.17792	149.70392	-383.03168	68.17960	166.11115	-400.79303	48.78990	157.25723	-385.01315	48.15698	95.22366	-418.13535	74.44698	122.21191	-445.68457	62.94262	119.62012	-430.00598	33.17256	115.49067	-310.50024	11.44922	193.46017	-282.52213	59.25372	114.42507	-273.14465	12.43972	201.90462	-235.12920	31.22542	160.60074 
34	0.330	-306.57504	925.83698	161.81242	-307.45737	924.00079	68.20941	-119.73834	875.11761	238.00035	-112.68275	869.60553	2.29332	-247.65712	571.52118	252.77359	-277.16006	433.42172	217.81424	-290.86621	392.88928	213.95709	-233.15758	375.07336	158.93047	-257.46384	306.06018	149.10823	-380.61444	68.02335	165.31023	-403.46521	51.78988	155.32735	-384.34262	49.68608	93.67429	-417.59460	76.14801	120.11531	-444.94595	65.02100	117.69645	-429.57083	35.05144	113.71144	-310.75943	11.87726	192.50470	-281.72327	59.44786	113.93983	-273.57028	12.62356	201.47485	-235.05930	31.04942	160.36731 
35	0.340	-292.49008	923.60736	160.17030	-292.74875	921.67548	66.73524	-105.62567	873.29974	238.08765	-97.02869	868.06238	2.58385	-238.60715	570.78424	252.01637	-270.58698	433.37518	217.00558	-285.61145	393.16785	213.08858	-227.92381	374.52808	158.06213	-253.08209	305.77209	148.39644	-382.20770	71.66123	163.52548	-398.88388	51.56475	154.92157	-384.00116	51.28559	92.06893	-417.12289	78.12212	117.98105	-444.08121	67.35718	116.18068	-429.16293	37.16739	112.47366	-310.85495	12.18239	191.71411	-280.91196	59.65941	113.49767	-273.98264	12.59591	200.91850	-234.98347	30.87839	160.18060 
36	0.350	-278.28201	921.34204	158.34196	-278.46811	919.09131	65.07095	-91.58377	871.22949	238.56979	-81.13887	866.17365	2.94667	-229.63196	570.19165	251.19225	-263.38211	433.24689	216.29456	-279.34647	393.38223	212.42290	-222.03346	373.77130	157.21408	-248.39232	305.45007	147.62903	-381.88800	73.85769	162.68375	-397.27371	52.94264	154.34206	-383.43060	52.87540	91.19543	-416.28275	80.33181	117.00990	-443.24612	69.85401	115.40261	-428.68991	39.46476	111.68929	-310.95740	12.56549	191.04422	-280.15942	59.90711	113.20953	-274.54977	12.36395	200.28990	-234.86751	31.06911	160.30476 
37	0.360	-263.93015	919.10596	156.35431	-263.86874	916.17712	63.17537	-78.47505	868.35223	239.92020	-65.18985	863.96564	3.42716	-220.65140	569.64050	250.43440	-255.50204	433.03793	215.65764	-272.30945	393.46927	211.80917	-215.51808	372.66074	156.68581	-243.21097	304.98163	147.04956	-380.81183	75.68337	162.24292	-396.59991	55.19257	153.86823	-382.89301	54.80328	90.77123	-415.20682	82.66216	116.64074	-442.34122	72.59053	114.94188	-428.18567	42.05729	111.24424	-311.02997	13.06612	190.53009	-279.43820	60.21923	113.00167	-275.03613	12.47568	200.13963	-234.70822	31.53881	160.64406 
38	0.370	-249.44328	916.97241	154.22624	-248.08946	912.79071	61.03231	-64.66333	865.50281	241.31801	-49.15191	861.49847	4.06378	-211.38629	569.04187	249.72418	-246.97289	432.67154	215.15294	-264.54791	393.43124	211.33476	-208.42480	371.35474	156.40544	-237.55977	304.19971	146.71161	-379.20642	77.50114	162.07117	-396.31082	58.28966	153.39536	-382.19287	56.83908	90.65952	-414.03729	85.27315	116.53431	-441.46292	75.76201	114.78775	-427.70203	45.04031	111.06134	-310.95569	13.59982	190.11539	-278.69586	60.56959	112.89898	-275.37244	12.30786	199.76677	-234.69122	31.43125	160.48428 
39	0.380	-234.71985	914.88458	151.95049	-232.70406	909.68573	58.81336	-50.47788	862.75385	241.93307	-33.06074	858.94220	4.66211	-201.78143	568.50201	249.15988	-238.11490	432.33795	214.71782	-256.28107	393.37601	211.02155	-201.03084	370.17209	156.19870	-231.42419	303.32465	146.56586	-378.01694	79.97227	162.20061	-395.56052	61.15750	153.36545	-381.50174	59.35952	90.68702	-412.46869	88.35994	116.96635	-440.41782	79.42486	115.06454	-427.18616	48.45709	111.14626	-310.78458	14.17326	189.75240	-277.93317	60.99274	112.84870	-275.63007	12.05430	199.34140	-234.66035	31.18682	160.26382 
40	0.390	-219.84749	912.82465	149.49669	-217.35472	906.81378	56.42486	-36.33751	859.72852	242.36963	-16.96551	856.37115	4.92175	-191.49344	567.97180	248.56438	-229.06450	432.01862	214.43112	-247.71814	393.47501	210.77966	-193.37584	368.86362	155.87035	-224.85529	302.67984	146.39520	-376.71136	82.89209	162.45950	-394.33389	64.20567	153.56439	-380.71802	62.36798	90.80344	-410.20352	92.05202	118.13754	-439.07617	83.56116	115.52074	-426.51385	52.31537	111.44779	-310.52917	14.93337	189.48875	-277.04471	61.54490	112.88100	-275.70642	12.02063	198.90186	-234.56210	31.29974	160.50719 
41	0.400	-204.88159	910.73969	146.96045	-201.78760	904.16345	53.91122	-21.94081	856.80560	242.62331	-0.88776	853.73535	4.95337	-180.69177	567.44904	247.71637	-219.70877	431.92606	214.30553	-238.67741	393.64429	210.68987	-184.84373	367.47253	156.14929	-217.82678	302.11682	146.25674	-375.50037	85.86282	163.31403	-393.24887	67.30766	154.40341	-379.70276	65.73927	91.16610	-408.17297	96.05508	118.90034	-437.27780	88.42525	116.09850	-425.59625	56.71529	111.94929	-310.61322	16.08772	189.83499	-276.09348	62.33545	112.93990	-275.54501	11.27910	197.60078	-234.62141	30.66129	159.91685 
42	0.410	-189.23424	908.37720	144.41394	-185.96045	901.70587	51.40189	-7.11888	854.47015	242.46948	15.23556	851.22046	4.82087	-169.14943	566.83240	247.19954	-209.86111	431.93097	214.33321	-229.06491	393.75119	210.59508	-175.51878	365.91678	156.77699	-210.13287	301.46872	146.36890	-374.06696	88.93897	164.38547	-392.88840	71.37530	156.12637	-378.39572	69.45744	91.71987	-405.87991	100.46449	119.61317	-434.93466	94.04733	116.88344	-424.46970	61.67436	112.50668	-310.82480	17.39658	190.30045	-274.97308	63.19387	113.15405	-274.97162	11.79586	197.29022	-234.66142	30.23234	159.87738 
43	0.420	-172.99005	905.75641	141.94121	-169.94644	899.35864	48.98687	7.59428	852.29425	242.42761	31.56486	848.90186	4.51867	-157.13977	566.13483	246.90807	-199.20514	431.78098	214.34894	-218.94601	393.76523	210.53673	-165.64240	364.22415	157.17723	-201.77809	300.64160	146.78127	-370.34460	92.54587	164.26599	-391.92926	77.35041	157.36981	-376.76108	73.67490	92.28026	-403.13684	105.24419	120.28270	-432.55981	99.79550	117.70392	-422.89688	67.14009	113.12161	-309.98218	18.21461	189.15891	-273.58252	64.20351	113.37553	-275.02863	12.47932	197.44556	-234.57726	30.22024	160.76312 
44	0.430	-157.29448	903.38867	139.66629	-153.91882	897.25879	46.85531	22.39719	850.26752	242.56619	47.99059	846.77588	4.18630	-144.57774	565.31622	246.79010	-187.63567	431.28329	214.40141	-208.06023	393.60742	210.66615	-154.88539	362.49661	158.00259	-192.83832	299.70847	147.71245	-367.78903	96.97462	164.70518	-389.34061	81.80064	157.83066	-374.75061	78.37512	92.78429	-400.09103	110.61988	121.05481	-429.79544	106.01569	118.54111	-420.85992	73.22536	113.78523	-309.48596	19.54714	188.74873	-271.93100	65.29848	113.68591	-276.31772	12.38500	197.49669	-233.92731	31.36545	161.34735 
